<svg xmlns="http://www.w3.org/2000/svg" xmlns:xlink="http://www.w3.org/1999/xlink" width="500" zoomAndPan="magnify" viewBox="0 0 375 374.999991" height="500" preserveAspectRatio="xMidYMid meet" version="1.0"><defs><clipPath id="0f6cf77157"><path d="M 27 0 L 348 0 C 355.160156 0 362.027344 2.84375 367.09375 7.90625 C 372.15625 12.972656 375 19.839844 375 27 L 375 348 C 375 355.160156 372.15625 362.027344 367.09375 367.09375 C 362.027344 372.15625 355.160156 375 348 375 L 27 375 C 19.839844 375 12.972656 372.15625 7.90625 367.09375 C 2.84375 362.027344 0 355.160156 0 348 L 0 27 C 0 12.089844 12.089844 0 27 0 Z M 27 0 " clip-rule="nonzero"/></clipPath><clipPath id="2eee23f3f6"><path d="M 42.914062 100 L 332.414062 100 L 332.414062 281 L 42.914062 281 Z M 42.914062 100 " clip-rule="nonzero"/></clipPath></defs><g clip-path="url(#0f6cf77157)"><rect x="-37.5" width="450" fill="#1e1e1e" y="-37.499999" height="449.999989" fill-opacity="1"/></g><g clip-path="url(#2eee23f3f6)"><path fill="#ffffff" d="M 330.84375 106.601562 L 325.921875 106.601562 C 319.835938 106.601562 314.105469 109.441406 310.40625 114.269531 L 260.03125 180.140625 L 209.660156 114.269531 C 205.96875 109.441406 200.234375 106.601562 194.152344 106.601562 L 189.230469 106.601562 L 252.753906 189.664062 L 187.871094 274.511719 L 192.792969 274.511719 C 198.878906 274.511719 204.609375 271.675781 208.304688 266.847656 L 260.039062 199.195312 L 311.769531 266.847656 C 315.464844 271.675781 321.199219 274.511719 327.28125 274.511719 L 332.203125 274.511719 L 267.320312 189.664062 Z M 166.175781 241.171875 C 151.386719 263.644531 122.277344 275.160156 94.445312 265.003906 C 69.957031 256.070312 54.492188 231.730469 54.492188 205.664062 L 54.492188 199.242188 L 187.664062 199.242188 L 187.664062 175.308594 C 187.664062 137.644531 159.765625 104.667969 122.265625 101.140625 C 79.234375 97.09375 42.914062 130.976562 42.914062 173.1875 L 42.914062 205.457031 C 42.914062 236.554688 61.527344 265.460938 90.789062 275.996094 C 129.019531 289.75 169.234375 269.21875 182.828125 233.984375 L 179.132812 233.984375 C 173.859375 233.984375 169.070312 236.765625 166.175781 241.171875 Z M 54.492188 173.1875 C 54.492188 139.664062 81.761719 112.390625 115.289062 112.390625 C 148.8125 112.390625 176.082031 139.664062 176.082031 173.1875 L 176.082031 187.664062 L 54.492188 187.664062 Z M 54.492188 173.1875 " fill-opacity="1" fill-rule="nonzero"/></g></svg>