<svg width="193" height="193" viewBox="0 0 193 193" fill="none" xmlns="http://www.w3.org/2000/svg">
<rect width="193" height="193" rx="16" fill="#1A1A1A"/>
<path fill-rule="evenodd" clip-rule="evenodd" d="M96.6735 23.0037C102.002 22.9852 102.854 23.0222 105.999 23.4478C107.923 23.7069 110.31 24.0955 111.328 24.299C112.346 24.5026 114.011 24.8912 115.028 25.1317C116.046 25.3908 117.97 25.9274 119.284 26.3346C120.598 26.7602 122.929 27.5929 124.465 28.2035C125.982 28.8327 128.48 29.943 130.016 30.7202C131.533 31.4789 133.828 32.7187 135.104 33.4959C136.381 34.2546 138.213 35.4389 139.175 36.1051C140.137 36.7713 141.802 38.0296 142.875 38.8808C143.949 39.7505 145.817 41.342 147.039 42.4337C148.26 43.5255 150.221 45.4685 151.387 46.7639C152.553 48.0592 154.051 49.7987 154.717 50.6314C155.383 51.4456 156.531 52.963 157.252 53.9807C157.974 54.9985 159.251 56.923 160.083 58.2368C160.916 59.5507 162.285 62.0118 163.118 63.6958C163.969 65.3797 165.079 67.7853 165.597 69.0622C166.115 70.339 166.874 72.393 167.281 73.6514C167.706 74.8912 168.336 77.0192 168.687 78.3701C169.039 79.7024 169.557 82.1451 169.871 83.7735C170.167 85.4019 170.537 87.6965 170.704 88.8623C170.926 90.4352 171 92.5633 171 96.9119C171 102.278 170.963 103.148 170.519 106.257C170.26 108.144 169.853 110.679 169.594 111.901C169.353 113.122 168.891 115.047 168.595 116.157C168.299 117.267 167.743 119.118 167.373 120.228C167.003 121.338 166.374 123.096 165.967 124.114C165.56 125.132 164.764 126.964 164.209 128.185C163.636 129.406 162.674 131.331 162.063 132.441C161.452 133.551 160.342 135.439 159.602 136.605C158.862 137.771 157.456 139.825 156.457 141.138C155.476 142.452 154.033 144.284 153.256 145.209C152.497 146.135 150.702 148.041 149.259 149.466C147.834 150.89 145.706 152.87 144.541 153.851C143.375 154.813 141.247 156.46 139.822 157.478C138.398 158.496 137.195 159.31 137.14 159.273C137.084 159.255 132.144 151.816 126.167 142.785C120.172 133.736 112.623 122.301 109.367 117.36C106.11 112.419 100.356 103.703 96.5625 97.9667C92.7694 92.2302 87.089 83.6625 83.9435 78.9067C79.2437 71.8564 78.078 70.2095 77.56 69.9504C77.0234 69.6728 76.3943 69.6173 71.1764 69.5988L70.3808 70.1725C69.9552 70.4685 69.5297 70.8941 69.4186 71.0977C69.2891 71.3383 69.2336 81.4974 69.2336 100.428C69.2336 125.798 69.2706 129.462 69.5112 129.943C69.6592 130.239 70.0662 130.702 70.3808 130.961C70.9729 131.423 71.0469 131.423 76.6348 131.331L78.0225 129.943L78.152 127.112C78.2076 125.576 78.2816 116.138 78.3001 106.164C78.3186 96.1902 78.3926 87.6225 78.5776 86.1976L84.2025 94.5063C87.311 99.0955 90.9006 104.369 92.1773 106.257C93.4725 108.144 97.6542 114.306 101.466 119.95C106.092 126.797 110.643 133.237 115.121 139.288C118.822 144.284 123.225 150.224 124.909 152.5C126.593 154.758 128.85 157.811 129.923 159.255C130.997 160.679 131.94 161.975 132.014 162.104C132.107 162.252 131.533 162.641 130.145 163.326C129.054 163.881 127.24 164.714 126.13 165.195C125.02 165.676 122.393 166.638 120.302 167.323C118.211 168.026 115.14 168.877 113.456 169.247C111.772 169.599 109.311 170.061 107.997 170.265C106.684 170.469 105.055 170.728 104.389 170.839C103.612 170.987 100.837 171.024 96.433 170.987C90.216 170.931 89.4389 170.876 86.6264 170.432C84.9426 170.154 82.5743 169.728 81.3531 169.469C80.1319 169.192 78.041 168.674 76.7273 168.322C75.4136 167.952 73.1932 167.23 71.824 166.731C70.4548 166.231 68.4565 165.435 67.3833 164.973C66.3101 164.51 64.6449 163.733 63.6827 163.252C62.7206 162.771 60.9628 161.808 59.7971 161.124C58.6314 160.439 56.6701 159.199 55.4489 158.366C54.2277 157.552 52.4329 156.238 51.4522 155.48C50.4716 154.721 48.7138 153.241 47.5666 152.223C46.4009 151.187 44.7542 149.595 43.8845 148.707C43.0149 147.8 41.5532 146.19 40.6465 145.117C39.7214 144.044 38.4632 142.508 37.8526 141.694C37.2235 140.879 36.0208 139.177 35.1881 137.9C34.337 136.623 32.9678 134.384 32.1351 132.904C31.321 131.423 30.1553 129.129 29.5632 127.815C28.9711 126.501 28.0645 124.318 27.5649 123.004C27.0653 121.69 26.2882 119.303 25.8256 117.73C25.363 116.157 24.7154 113.455 24.3639 111.716C24.0123 109.976 23.5498 107.275 23.3462 105.702C22.9947 103.111 22.9577 102.186 23.0317 96.1717C23.0872 90.1206 23.1427 89.2324 23.5868 86.4567C23.8458 84.7727 24.2714 82.4041 24.5489 81.1828C24.808 79.9615 25.363 77.7964 25.7701 76.3716C26.1772 74.9467 26.8618 72.8742 27.2688 71.7454C27.6759 70.6166 28.4715 68.6736 29.0266 67.3967C29.5817 66.1199 30.5624 64.0844 31.1915 62.8631C31.8391 61.6417 32.8382 59.8468 33.4303 58.8845C34.0039 57.9223 35.2066 56.0903 36.0763 54.8135C36.9459 53.5366 38.2781 51.7047 39.0552 50.7424C39.8324 49.7801 41.2201 48.1702 42.1452 47.134C43.0704 46.1162 44.6061 44.5248 45.5683 43.618C46.5305 42.6928 48.2697 41.1569 49.4354 40.1762C50.6011 39.2139 52.0628 38.0481 52.6734 37.567C53.284 37.1044 54.8568 36.0126 56.189 35.1428C57.5212 34.2731 59.6676 32.9593 60.9998 32.2191C62.332 31.4789 64.2378 30.4796 65.2555 29.9985C66.2731 29.5174 68.3455 28.6292 69.8812 28.0185C71.3985 27.4078 73.6188 26.6121 74.7845 26.2605C75.9502 25.8904 78.115 25.2983 79.5953 24.9467C81.0755 24.5951 83.6104 24.0955 85.2387 23.8364C86.867 23.5773 88.7728 23.2998 89.4944 23.2072C90.216 23.1147 93.4355 23.0222 96.6735 23.0037ZM115.065 68.9696C114.843 72.134 114.769 80.9052 114.769 90.5277V108.015C121.708 118.563 123.78 121.634 123.854 121.616C123.947 121.616 124.002 109.958 124.002 95.7091C124.002 71.4123 123.984 69.7653 123.669 69.1177C123.503 68.7476 123.059 68.2479 122.707 68.0074C122.097 67.6003 121.893 67.5818 119.321 67.5818H116.583L115.065 68.9696Z" fill="white"/>
</svg>
