<svg xmlns="http://www.w3.org/2000/svg" xmlns:xlink="http://www.w3.org/1999/xlink" width="500" zoomAndPan="magnify" viewBox="0 0 375 374.999991" height="500" preserveAspectRatio="xMidYMid meet" version="1.2"><defs><clipPath id="e07f94b8ba"><path d="M 27 0 L 348 0 C 355.160156 0 362.027344 2.84375 367.09375 7.90625 C 372.15625 12.972656 375 19.839844 375 27 L 375 348 C 375 355.160156 372.15625 362.027344 367.09375 367.09375 C 362.027344 372.15625 355.160156 375 348 375 L 27 375 C 19.839844 375 12.972656 372.15625 7.90625 367.09375 C 2.84375 362.027344 0 355.160156 0 348 L 0 27 C 0 12.089844 12.089844 0 27 0 Z M 27 0 "/></clipPath></defs><g id="f293e6a231"><g clip-rule="nonzero" clip-path="url(#e07f94b8ba)"><rect x="0" width="375" y="0" height="374.999991" style="fill:#8892bf;fill-opacity:1;stroke:none;"/></g><path style=" stroke:none;fill-rule:nonzero;fill:#8892bf;fill-opacity:1;" d="M 352.199219 187.480469 C 352.199219 190.179688 352.136719 192.871094 352.003906 195.566406 C 351.871094 198.257812 351.671875 200.945312 351.40625 203.628906 C 351.144531 206.308594 350.8125 208.984375 350.417969 211.652344 C 350.023438 214.316406 349.5625 216.972656 349.035156 219.617188 C 348.511719 222.261719 347.917969 224.890625 347.265625 227.503906 C 346.609375 230.121094 345.890625 232.71875 345.109375 235.296875 C 344.324219 237.878906 343.480469 240.4375 342.574219 242.972656 C 341.664062 245.511719 340.695312 248.027344 339.664062 250.515625 C 338.632812 253.007812 337.539062 255.472656 336.386719 257.910156 C 335.234375 260.34375 334.023438 262.753906 332.75 265.128906 C 331.480469 267.507812 330.152344 269.851562 328.765625 272.164062 C 327.378906 274.476562 325.9375 276.753906 324.441406 278.996094 C 322.941406 281.238281 321.390625 283.441406 319.785156 285.605469 C 318.179688 287.769531 316.523438 289.894531 314.8125 291.980469 C 313.101562 294.0625 311.339844 296.101562 309.53125 298.101562 C 307.71875 300.097656 305.863281 302.050781 303.957031 303.957031 C 302.050781 305.863281 300.097656 307.71875 298.101562 309.53125 C 296.101562 311.339844 294.0625 313.101562 291.980469 314.8125 C 289.894531 316.523438 287.769531 318.179688 285.605469 319.785156 C 283.441406 321.390625 281.238281 322.941406 278.996094 324.441406 C 276.753906 325.9375 274.476562 327.378906 272.164062 328.765625 C 269.851562 330.152344 267.507812 331.480469 265.128906 332.75 C 262.753906 334.023438 260.34375 335.234375 257.910156 336.386719 C 255.472656 337.539062 253.007812 338.632812 250.515625 339.664062 C 248.027344 340.695312 245.511719 341.664062 242.972656 342.574219 C 240.4375 343.480469 237.878906 344.324219 235.296875 345.109375 C 232.71875 345.890625 230.121094 346.609375 227.503906 347.265625 C 224.890625 347.917969 222.261719 348.511719 219.617188 349.035156 C 216.972656 349.5625 214.316406 350.023438 211.652344 350.417969 C 208.984375 350.8125 206.308594 351.144531 203.628906 351.40625 C 200.945312 351.671875 198.257812 351.871094 195.566406 352.003906 C 192.871094 352.136719 190.179688 352.199219 187.480469 352.199219 C 184.785156 352.199219 182.09375 352.136719 179.398438 352.003906 C 176.707031 351.871094 174.019531 351.671875 171.335938 351.40625 C 168.65625 351.144531 165.980469 350.8125 163.3125 350.417969 C 160.648438 350.023438 157.992188 349.5625 155.347656 349.035156 C 152.703125 348.511719 150.074219 347.917969 147.460938 347.265625 C 144.84375 346.609375 142.246094 345.890625 139.667969 345.109375 C 137.085938 344.324219 134.527344 343.480469 131.992188 342.574219 C 129.453125 341.664062 126.9375 340.695312 124.445312 339.664062 C 121.957031 338.632812 119.492188 337.539062 117.054688 336.386719 C 114.617188 335.234375 112.210938 334.023438 109.835938 332.75 C 107.457031 331.480469 105.113281 330.152344 102.800781 328.765625 C 100.488281 327.378906 98.210938 325.9375 95.96875 324.441406 C 93.726562 322.941406 91.523438 321.390625 89.359375 319.785156 C 87.195312 318.179688 85.070312 316.523438 82.984375 314.8125 C 80.902344 313.101562 78.863281 311.339844 76.863281 309.53125 C 74.867188 307.71875 72.914062 305.863281 71.007812 303.957031 C 69.101562 302.050781 67.246094 300.097656 65.433594 298.101562 C 63.625 296.101562 61.863281 294.0625 60.152344 291.980469 C 58.441406 289.894531 56.785156 287.769531 55.179688 285.605469 C 53.574219 283.441406 52.019531 281.238281 50.523438 278.996094 C 49.027344 276.753906 47.585938 274.476562 46.199219 272.164062 C 44.8125 269.851562 43.484375 267.507812 42.214844 265.128906 C 40.941406 262.753906 39.730469 260.34375 38.578125 257.910156 C 37.425781 255.472656 36.332031 253.007812 35.300781 250.515625 C 34.269531 248.027344 33.300781 245.511719 32.390625 242.972656 C 31.484375 240.4375 30.640625 237.878906 29.855469 235.296875 C 29.074219 232.71875 28.355469 230.121094 27.699219 227.503906 C 27.046875 224.890625 26.453125 222.261719 25.929688 219.617188 C 25.402344 216.972656 24.941406 214.316406 24.546875 211.652344 C 24.152344 208.984375 23.820312 206.308594 23.558594 203.628906 C 23.292969 200.945312 23.09375 198.257812 22.960938 195.566406 C 22.828125 192.871094 22.761719 190.179688 22.761719 187.480469 C 22.761719 184.785156 22.828125 182.09375 22.960938 179.398438 C 23.09375 176.707031 23.292969 174.019531 23.558594 171.335938 C 23.820312 168.65625 24.152344 165.980469 24.546875 163.3125 C 24.941406 160.648438 25.402344 157.992188 25.929688 155.347656 C 26.453125 152.703125 27.046875 150.074219 27.699219 147.460938 C 28.355469 144.84375 29.074219 142.246094 29.855469 139.667969 C 30.640625 137.085938 31.484375 134.527344 32.390625 131.992188 C 33.300781 129.453125 34.269531 126.9375 35.300781 124.445312 C 36.332031 121.957031 37.425781 119.492188 38.578125 117.054688 C 39.730469 114.617188 40.941406 112.210938 42.214844 109.835938 C 43.484375 107.457031 44.8125 105.113281 46.199219 102.800781 C 47.585938 100.488281 49.027344 98.210938 50.523438 95.96875 C 52.019531 93.726562 53.574219 91.523438 55.179688 89.359375 C 56.785156 87.195312 58.441406 85.070312 60.152344 82.984375 C 61.863281 80.902344 63.625 78.863281 65.433594 76.863281 C 67.246094 74.867188 69.101562 72.914062 71.007812 71.007812 C 72.914062 69.101562 74.867188 67.246094 76.863281 65.433594 C 78.863281 63.625 80.902344 61.863281 82.984375 60.152344 C 85.070312 58.441406 87.195312 56.785156 89.359375 55.179688 C 91.523438 53.574219 93.726562 52.019531 95.96875 50.523438 C 98.210938 49.027344 100.488281 47.585938 102.800781 46.199219 C 105.113281 44.8125 107.457031 43.484375 109.835938 42.214844 C 112.210938 40.941406 114.617188 39.730469 117.054688 38.578125 C 119.492188 37.425781 121.957031 36.332031 124.445312 35.300781 C 126.9375 34.269531 129.453125 33.300781 131.992188 32.390625 C 134.527344 31.484375 137.085938 30.640625 139.667969 29.855469 C 142.246094 29.074219 144.84375 28.355469 147.460938 27.699219 C 150.074219 27.046875 152.703125 26.453125 155.347656 25.929688 C 157.992188 25.402344 160.648438 24.941406 163.3125 24.546875 C 165.980469 24.152344 168.65625 23.820312 171.335938 23.558594 C 174.019531 23.292969 176.707031 23.09375 179.398438 22.960938 C 182.09375 22.828125 184.785156 22.761719 187.480469 22.761719 C 190.179688 22.761719 192.871094 22.828125 195.566406 22.960938 C 198.257812 23.09375 200.945312 23.292969 203.628906 23.558594 C 206.308594 23.820312 208.984375 24.152344 211.652344 24.546875 C 214.316406 24.941406 216.972656 25.402344 219.617188 25.929688 C 222.261719 26.453125 224.890625 27.046875 227.503906 27.699219 C 230.121094 28.355469 232.71875 29.074219 235.296875 29.855469 C 237.878906 30.640625 240.4375 31.484375 242.972656 32.390625 C 245.511719 33.300781 248.027344 34.269531 250.515625 35.300781 C 253.007812 36.332031 255.472656 37.425781 257.910156 38.578125 C 260.34375 39.730469 262.753906 40.941406 265.128906 42.214844 C 267.507812 43.484375 269.851562 44.8125 272.164062 46.199219 C 274.476562 47.585938 276.753906 49.027344 278.996094 50.523438 C 281.238281 52.019531 283.441406 53.574219 285.605469 55.179688 C 287.769531 56.785156 289.894531 58.441406 291.980469 60.152344 C 294.0625 61.863281 296.101562 63.625 298.101562 65.433594 C 300.097656 67.246094 302.050781 69.101562 303.957031 71.007812 C 305.863281 72.914062 307.71875 74.867188 309.53125 76.863281 C 311.339844 78.863281 313.101562 80.902344 314.8125 82.984375 C 316.523438 85.070312 318.179688 87.195312 319.785156 89.359375 C 321.390625 91.523438 322.941406 93.726562 324.441406 95.96875 C 325.9375 98.210938 327.378906 100.488281 328.765625 102.800781 C 330.152344 105.113281 331.480469 107.457031 332.75 109.835938 C 334.023438 112.210938 335.234375 114.617188 336.386719 117.054688 C 337.539062 119.492188 338.632812 121.957031 339.664062 124.445312 C 340.695312 126.9375 341.664062 129.453125 342.574219 131.992188 C 343.480469 134.527344 344.324219 137.085938 345.109375 139.667969 C 345.890625 142.246094 346.609375 144.84375 347.265625 147.460938 C 347.917969 150.074219 348.511719 152.703125 349.035156 155.347656 C 349.5625 157.992188 350.023438 160.648438 350.417969 163.3125 C 350.8125 165.980469 351.144531 168.65625 351.40625 171.335938 C 351.671875 174.019531 351.871094 176.707031 352.003906 179.398438 C 352.136719 182.09375 352.199219 184.785156 352.199219 187.480469 Z M 352.199219 187.480469 "/><path style=" stroke:none;fill-rule:nonzero;fill:#ffffff;fill-opacity:1;" d="M 169.117188 116.886719 L 188.886719 116.886719 L 183.296875 146.585938 L 201.058594 146.585938 C 210.800781 146.796875 218.054688 148.972656 222.832031 153.117188 C 227.703125 157.261719 229.136719 165.144531 227.128906 176.753906 L 217.53125 228.53125 L 197.480469 228.53125 L 206.644531 179.085938 C 207.601562 173.902344 207.316406 170.222656 205.789062 168.046875 C 204.261719 165.867188 200.964844 164.78125 195.902344 164.78125 L 180.003906 164.625 L 168.257812 228.53125 L 148.492188 228.53125 Z M 169.117188 116.886719 "/><path style=" stroke:none;fill-rule:evenodd;fill:#ffffff;fill-opacity:1;" d="M 78.542969 146.589844 L 116.929688 146.589844 C 128.199219 146.691406 136.363281 150.21875 141.425781 157.160156 C 146.484375 164.105469 148.15625 173.589844 146.4375 185.617188 C 145.769531 191.113281 144.289062 196.5 141.996094 201.789062 C 139.800781 207.074219 136.746094 211.84375 132.832031 216.09375 C 128.054688 221.484375 122.945312 224.902344 117.503906 226.355469 C 112.0625 227.808594 106.425781 228.53125 100.601562 228.53125 L 83.414062 228.53125 L 77.96875 258.074219 L 58.058594 258.074219 Z M 86.707031 210.960938 L 95.273438 164.46875 L 98.167969 164.46875 C 99.21875 164.46875 100.316406 164.417969 101.460938 164.316406 C 109.101562 164.210938 115.449219 164.988281 120.511719 166.648438 C 125.667969 168.304688 127.386719 174.578125 125.667969 185.460938 C 123.570312 198.417969 119.460938 205.984375 113.351562 208.164062 C 107.238281 210.238281 99.597656 211.222656 90.433594 211.117188 L 88.425781 211.117188 C 87.855469 211.117188 87.28125 211.0625 86.707031 210.960938 Z M 86.707031 210.960938 "/><path style=" stroke:none;fill-rule:evenodd;fill:#ffffff;fill-opacity:1;" d="M 286.742188 146.589844 L 248.355469 146.589844 L 227.871094 258.074219 L 247.78125 258.074219 L 253.226562 228.53125 L 270.414062 228.53125 C 276.238281 228.53125 281.875 227.808594 287.316406 226.355469 C 292.761719 224.902344 297.867188 221.484375 302.644531 216.09375 C 306.558594 211.84375 309.613281 207.074219 311.808594 201.789062 C 314.101562 196.5 315.582031 191.113281 316.25 185.617188 C 317.96875 173.589844 316.300781 164.105469 311.238281 157.160156 C 306.175781 150.21875 298.011719 146.691406 286.742188 146.589844 Z M 265.085938 164.46875 L 256.519531 210.960938 C 257.09375 211.0625 257.667969 211.117188 258.238281 211.117188 L 260.246094 211.117188 C 269.414062 211.222656 277.050781 210.238281 283.164062 208.164062 C 289.273438 205.984375 293.382812 198.417969 295.480469 185.460938 C 297.199219 174.578125 295.480469 168.304688 290.324219 166.648438 C 285.261719 164.988281 278.914062 164.210938 271.273438 164.316406 C 270.128906 164.417969 269.03125 164.46875 267.980469 164.46875 Z M 265.085938 164.46875 "/></g></svg>