<svg xmlns="http://www.w3.org/2000/svg" xmlns:xlink="http://www.w3.org/1999/xlink" width="500" zoomAndPan="magnify" viewBox="0 0 375 374.999991" height="500" preserveAspectRatio="xMidYMid meet" version="1.0"><defs><clipPath id="f56165d2be"><path d="M 27 0 L 348 0 C 355.160156 0 362.027344 2.84375 367.09375 7.90625 C 372.15625 12.972656 375 19.839844 375 27 L 375 348 C 375 355.160156 372.15625 362.027344 367.09375 367.09375 C 362.027344 372.15625 355.160156 375 348 375 L 27 375 C 19.839844 375 12.972656 372.15625 7.90625 367.09375 C 2.84375 362.027344 0 355.160156 0 348 L 0 27 C 0 12.089844 12.089844 0 27 0 Z M 27 0 " clip-rule="nonzero"/></clipPath></defs><g clip-path="url(#f56165d2be)"><rect x="-37.5" width="450" fill="#35678c" y="-37.499999" height="449.999989" fill-opacity="1"/></g><path fill="#ffffff" d="M 244.996094 54.492188 C 233.191406 54.492188 222.96875 57.679688 215.890625 60.824219 C 208.945312 58.496094 197.433594 54.515625 183.613281 57.386719 C 175.5625 58.789062 168.167969 62.113281 161.382812 67.203125 C 150.207031 61.820312 138.539062 58.519531 126.300781 57.976562 C 118.769531 57.386719 88.078125 60.871094 77.066406 77.066406 C 73.015625 83.441406 68.96875 91.539062 67.226562 101.378906 C 65.484375 110.0625 65.484375 119.925781 68.378906 140.1875 C 70.121094 154.074219 72.449219 163.347656 77.652344 182.4375 C 78.242188 184.179688 81.136719 193.453125 89.820312 218.941406 C 91.539062 223.554688 95.023438 232.242188 101.964844 240.339844 C 106.601562 246.128906 111.238281 249.609375 117.027344 249.609375 C 124.5625 249.609375 129.761719 244.410156 134.398438 238.617188 C 134.738281 238.234375 135.101562 237.804688 135.4375 237.421875 C 135.007812 238.097656 134.625 238.84375 134.398438 239.773438 C 133.246094 245.5625 140.1875 250.199219 145.980469 252.507812 C 150.617188 254.8125 155.816406 255.402344 159.867188 255.402344 C 165.066406 255.402344 169.140625 254.246094 171.445312 253.683594 C 173.4375 253.003906 177.734375 251.148438 182.324219 248.09375 C 182.527344 262.886719 182.664062 280.347656 183.027344 284.351562 C 184.765625 299.414062 188.816406 309.816406 196.347656 315.609375 C 202.136719 320.246094 212.5625 320.832031 213.152344 320.832031 C 223.554688 320.832031 239.773438 313.890625 246.714844 302.898438 C 250.199219 297.671875 251.351562 293.035156 252.507812 286.65625 C 253.660156 283.199219 254.8125 262.933594 255.402344 258.882812 C 256.191406 252.484375 256.804688 246.171875 257.414062 240.042969 C 261.234375 241.039062 265.941406 242.101562 271.050781 242.101562 C 280.300781 242.101562 292.46875 235.722656 294.777344 234.546875 C 299.414062 231.085938 308.664062 222.992188 304.617188 216.046875 C 302.308594 211.976562 298.824219 211.976562 290.140625 213.152344 C 290.140625 213.152344 276.253906 214.871094 275.078125 214.28125 C 274.242188 213.964844 272.953125 213.152344 271.503906 212.089844 C 274.511719 207.429688 277.179688 202.816406 280.300781 198.675781 C 287.246094 185.355469 291.316406 174.929688 294.210938 166.832031 C 299.414062 152.355469 302.308594 140.753906 304.027344 132.65625 C 308.097656 115.289062 309.253906 107.191406 306.921875 97.917969 C 302.308594 81.699219 285.503906 67.8125 278.5625 63.765625 C 273.925781 61.4375 262.367188 54.492188 244.996094 54.492188 Z M 244.996094 66.074219 C 259.472656 66.074219 269.3125 71.863281 274.511719 74.167969 C 280.890625 77.652344 295.367188 89.234375 296.519531 100.222656 C 297.105469 106.601562 297.671875 112.980469 293.625 129.761719 C 291.316406 137.859375 288.988281 148.285156 283.761719 162.761719 C 280.867188 170.859375 277.40625 180.71875 270.464844 192.886719 C 270.28125 193.179688 270.078125 193.496094 269.898438 193.8125 C 270.578125 191.371094 271.050781 189.402344 271.050781 189.402344 C 272.207031 183.613281 272.207031 178.976562 271.617188 172.035156 C 271.03125 168.550781 270.464844 159.867188 270.464844 156.382812 C 270.464844 154.664062 272.183594 136.707031 272.769531 130.328125 C 273.359375 119.925781 266.980469 107.167969 265.261719 104.859375 C 256.578125 91.539062 251.941406 84.03125 242.667969 76.5 C 240.359375 74.53125 236.402344 71.25 231.019531 67.949219 C 235.273438 66.910156 239.976562 66.074219 244.996094 66.074219 Z M 193.835938 68.449219 C 201.390625 68.628906 207.792969 70.710938 212.5625 72.449219 C 224.730469 76.5 232.242188 82.855469 235.722656 85.75 C 243.253906 92.128906 247.304688 98.503906 255.988281 111.828125 C 256.621094 113.09375 258.273438 115.785156 259.585938 119.539062 C 247.734375 118.453125 239.863281 122.617188 235.136719 126.867188 C 228.191406 132.65625 228.757812 141.34375 229.347656 147.699219 C 229.347656 152.335938 230.523438 158.148438 239.207031 177.824219 C 242.667969 186.507812 246.128906 195.757812 249.609375 202.136719 C 251.421875 205.734375 253.636719 209.035156 256.011719 211.976562 C 254.632812 212.675781 253.230469 213.582031 251.917969 214.871094 C 248.457031 218.917969 247.871094 222.992188 246.714844 230.523438 C 245.5625 236.3125 244.410156 248.457031 243.820312 258.296875 C 243.820312 262.34375 242.101562 282.042969 241.515625 284.9375 C 239.773438 290.730469 239.183594 293.625 236.878906 297.105469 C 232.828125 303.460938 220.09375 308.6875 212.5625 308.097656 C 210.257812 308.097656 206.773438 308.097656 203.878906 305.792969 C 197.5 301.15625 195.195312 290.730469 194.605469 282.632812 C 194.019531 276.84375 194.605469 235.136719 193.453125 225.863281 C 192.863281 223.554688 192.300781 217.765625 187.664062 213.71875 C 185.71875 212.089844 181.691406 211.253906 177.890625 210.6875 C 177.9375 208.742188 178.050781 206.796875 178.410156 205.03125 C 178.976562 201.550781 180.132812 199.808594 181.308594 196.914062 C 181.871094 195.195312 183.027344 192.886719 184.203125 189.992188 C 189.402344 173.777344 188.226562 152.335938 185.332031 139.011719 C 184.765625 137.859375 182.4375 128.609375 174.339844 123.40625 C 165.65625 118.183594 156.382812 121.078125 151.179688 122.820312 C 149.03125 123.40625 146.90625 124.335938 144.78125 125.421875 C 145.140625 123 145.457031 120.558594 145.980469 118.183594 C 148.285156 106.601562 150.617188 96.765625 158.148438 86.925781 C 166.242188 77.066406 175.496094 70.710938 185.921875 68.96875 C 188.679688 68.539062 191.328125 68.378906 193.835938 68.449219 Z M 122.34375 69.464844 C 123.699219 69.441406 124.855469 69.464844 125.714844 69.554688 C 134.761719 70.03125 143.421875 72.15625 152.019531 75.773438 C 150.953125 76.953125 149.890625 78.128906 148.875 79.394531 C 139.035156 90.972656 136.707031 103.121094 134.398438 115.289062 C 131.503906 129.761719 130.914062 144.804688 133.222656 159.867188 L 132.09375 170.859375 C 131.503906 176.648438 130.328125 187.664062 136.707031 199.242188 C 138.945312 203.085938 141.410156 206.34375 144.125 209.125 C 138.242188 216.90625 132 224.257812 125.714844 231.085938 C 122.230469 235.136719 119.335938 238.03125 117.027344 238.03125 C 116.441406 238.03125 114.132812 236.878906 110.652344 232.828125 C 104.273438 225.886719 101.964844 218.355469 100.8125 215.460938 C 93.867188 194.605469 89.820312 181.285156 89.234375 179.542969 C 84.597656 161.019531 82.289062 151.769531 79.960938 138.449219 C 77.066406 119.925781 77.066406 110.652344 78.804688 103.140625 C 80.546875 95.023438 83.441406 88.644531 86.335938 84.03125 C 93.4375 72.878906 112.933594 69.714844 122.34375 69.464844 Z M 255.199219 130.484375 C 257.050781 130.484375 259.066406 130.710938 261.191406 131.164062 C 261.125 136.570312 258.882812 153.53125 258.882812 155.816406 C 258.882812 160.453125 260.039062 169.703125 260.039062 173.1875 C 260.625 179.566406 260.625 183.027344 260.039062 187.664062 C 260.039062 187.664062 259.179688 191.800781 258.296875 194.742188 C 255.605469 188.65625 252.617188 181.398438 249.023438 173.1875 C 240.339844 153.511719 239.773438 149.460938 239.773438 146.566406 C 239.773438 142.496094 239.773438 137.292969 243.234375 134.988281 C 246.488281 132.09375 250.449219 130.53125 255.199219 130.484375 Z M 165.316406 132.183594 C 166.46875 132.316406 167.535156 132.65625 168.550781 133.222656 C 173.1875 135.550781 174.339844 141.34375 174.339844 141.34375 C 177.234375 154.074219 178.390625 173.1875 173.753906 185.921875 C 173.1875 188.226562 172.035156 189.96875 171.445312 191.710938 C 170.292969 194.605469 169.140625 197.5 167.964844 202.703125 C 167.667969 204.851562 167.535156 206.976562 167.464844 209.105469 C 163.460938 208.265625 159.683594 206.84375 156.972656 205.03125 C 152.335938 202.726562 148.875 198.65625 146.566406 194.019531 C 142.496094 185.332031 143.085938 177.234375 143.671875 172.621094 L 144.804688 159.277344 C 143.988281 152.765625 143.605469 146.226562 143.695312 139.738281 C 146.363281 137.453125 149.847656 135.121094 154.664062 133.8125 C 158.148438 132.953125 161.945312 131.753906 165.316406 132.183594 Z M 250.695312 136.074219 C 249.179688 136.140625 247.574219 136.410156 246.714844 136.707031 C 244.410156 137.292969 243.820312 137.292969 243.234375 138.449219 C 242.667969 139.601562 244.410156 141.34375 244.996094 142.496094 C 245.5625 142.496094 247.304688 144.238281 249.609375 143.671875 C 251.351562 143.085938 252.507812 141.929688 253.09375 141.34375 C 253.683594 140.753906 255.988281 137.859375 254.246094 136.707031 C 253.660156 136.117188 252.210938 135.980469 250.695312 136.074219 Z M 164.003906 140.28125 C 163.371094 140.324219 162.761719 140.484375 162.171875 140.777344 C 161.609375 140.777344 160.453125 141.34375 159.867188 142.496094 C 159.277344 143.648438 159.867188 144.804688 160.453125 145.390625 C 161.609375 147.132812 163.347656 148.875 166.242188 148.875 C 166.832031 148.875 169.140625 148.875 170.859375 147.132812 C 170.859375 147.132812 172.621094 145.390625 172.621094 143.671875 C 172.035156 142.496094 170.878906 141.929688 169.140625 141.34375 C 167.828125 140.914062 165.882812 140.144531 164.003906 140.28125 Z M 153.351562 216.046875 C 156.902344 217.945312 161.179688 219.484375 165.859375 220.546875 C 164.617188 223.035156 162.828125 225.09375 161.042969 226.449219 C 156.972656 229.347656 151.769531 231.085938 146.566406 232.242188 C 145.390625 232.242188 144.824219 232.828125 143.671875 232.828125 C 140.867188 233.621094 138.152344 234.503906 136.300781 236.425781 C 141.976562 230.113281 147.675781 223.148438 153.351562 216.046875 Z M 264.992188 220.683594 C 267.523438 222.582031 270.011719 223.984375 272.183594 224.730469 C 275.664062 225.886719 278.5625 225.886719 288.988281 224.730469 C 287.246094 226.449219 282.042969 229.347656 274.511719 230.523438 C 269.671875 230.996094 263.65625 229.84375 258.769531 228.441406 C 259.222656 225.160156 259.742188 223.285156 260.601562 222.402344 C 260.917969 222.109375 262.84375 221.519531 264.992188 220.683594 Z M 177.800781 222.425781 C 179 222.628906 179.949219 222.785156 180.132812 222.96875 C 181.285156 224.144531 181.871094 227.039062 181.871094 228.191406 C 181.941406 229.1875 181.984375 231.699219 182.03125 233.441406 C 177.257812 239.027344 169.589844 242.125 167.964844 242.667969 C 165.65625 243.820312 158.710938 244.972656 151.769531 242.667969 C 157.558594 240.925781 163.347656 239.207031 167.964844 235.722656 C 172.011719 232.828125 175.496094 228.214844 177.800781 222.425781 Z M 177.800781 222.425781 " fill-opacity="1" fill-rule="nonzero"/></svg>