<svg xmlns="http://www.w3.org/2000/svg" xmlns:xlink="http://www.w3.org/1999/xlink" width="500" zoomAndPan="magnify" viewBox="0 0 375 374.999991" height="500" preserveAspectRatio="xMidYMid meet" version="1.0"><defs><clipPath id="21d51d4cbe"><path d="M 27 0 L 348 0 C 355.160156 0 362.027344 2.84375 367.09375 7.90625 C 372.15625 12.972656 375 19.839844 375 27 L 375 348 C 375 355.160156 372.15625 362.027344 367.09375 367.09375 C 362.027344 372.15625 355.160156 375 348 375 L 27 375 C 19.839844 375 12.972656 372.15625 7.90625 367.09375 C 2.84375 362.027344 0 355.160156 0 348 L 0 27 C 0 12.089844 12.089844 0 27 0 Z M 27 0 " clip-rule="nonzero"/></clipPath><clipPath id="e9a50585b3"><path d="M 62 42.914062 L 304 42.914062 L 304 327 L 62 327 Z M 62 42.914062 " clip-rule="nonzero"/></clipPath></defs><g clip-path="url(#21d51d4cbe)"><rect x="-37.5" width="450" fill="#5a67d9" y="-37.499999" height="449.999989" fill-opacity="1"/></g><g clip-path="url(#e9a50585b3)"><path fill="#ffffff" d="M 301.574219 260.429688 L 201.585938 51.539062 C 196.433594 40.777344 181.480469 39.890625 175.097656 49.96875 L 64.214844 225.070312 C 61.824219 228.847656 61.890625 233.675781 64.386719 237.382812 L 120.242188 320.3125 C 123.710938 325.457031 130.085938 327.78125 136.042969 326.066406 L 292.339844 281.050781 C 301.125 278.519531 305.53125 268.6875 301.574219 260.429688 Z M 279.492188 267.941406 L 148.042969 304.816406 C 144.996094 305.675781 142.136719 302.976562 142.796875 299.878906 L 189.398438 81.988281 C 190.238281 78.0625 195.558594 77.425781 197.296875 81.046875 L 283.238281 259.847656 C 284.738281 263.125 282.960938 266.96875 279.492188 267.941406 Z M 279.492188 267.941406 " fill-opacity="1" fill-rule="nonzero"/></g></svg>