<svg width="193" height="191" viewBox="0 0 193 191" fill="none" xmlns="http://www.w3.org/2000/svg">
<path d="M188.124 28.0201L101.51 182.9C99.7217 186.098 95.1273 186.117 93.3122 182.935L4.98112 28.035C3.00366 24.5673 5.96895 20.3669 9.89857 21.0693L96.605 36.5675C97.1581 36.6664 97.7244 36.6654 98.2775 36.5647L183.171 21.0915C187.087 20.3777 190.066 24.5455 188.124 28.0201Z" fill="url(#paint0_linear_346_83)"/>
<path d="M137.908 0.741129L73.8112 13.3006C72.7577 13.507 71.9777 14.3998 71.9141 15.4713L67.9713 82.0627C67.8786 83.6312 69.319 84.8485 70.8498 84.4954L88.6952 80.377C90.3649 79.9919 91.8736 81.4625 91.5305 83.1416L86.2286 109.104C85.8718 110.851 87.5123 112.345 89.2187 111.827L100.241 108.478C101.95 107.96 103.592 109.458 103.23 111.207L94.8044 151.988C94.2772 154.538 97.6702 155.929 99.0852 153.742L100.03 152.282L152.26 48.0485C153.135 46.3033 151.626 44.3133 149.71 44.6832L131.341 48.2284C129.615 48.5612 128.146 46.9536 128.633 45.2648L140.622 3.7032C141.11 2.01151 139.636 0.40257 137.908 0.741129Z" fill="url(#paint1_linear_346_83)"/>
<defs>
<linearGradient id="paint0_linear_346_83" x1="2.82445" y1="15.5341" x2="110.622" y2="161.932" gradientUnits="userSpaceOnUse">
<stop stop-color="#41D1FF"/>
<stop offset="1" stop-color="#BD34FE"/>
</linearGradient>
<linearGradient id="paint1_linear_346_83" x1="91.6284" y1="4.15101" x2="111.128" y2="137.919" gradientUnits="userSpaceOnUse">
<stop stop-color="#FFEA83"/>
<stop offset="0.0833333" stop-color="#FFDD35"/>
<stop offset="1" stop-color="#FFA800"/>
</linearGradient>
</defs>
</svg>
